<?xml version="1.0" encoding="UTF-8"?>
<!DOCTYPE svg PUBLIC "-//W3C//DTD SVG 1.1//EN" "http://www.w3.org/Graphics/SVG/1.1/DTD/svg11.dtd">
<!-- Creator: CorelDRAW X8 -->
<svg xmlns="http://www.w3.org/2000/svg" xml:space="preserve" width="3in" height="0.479025in" version="1.1" style="shape-rendering:geometricPrecision; text-rendering:geometricPrecision; image-rendering:optimizeQuality; fill-rule:evenodd; clip-rule:evenodd"
viewBox="0 0 30470 4865"
 xmlns:xlink="http://www.w3.org/1999/xlink">
 <defs>
  <style type="text/css">
   <![CDATA[
    .fil2 {fill:white}
    .fil1 {fill:#FEFEFE;fill-rule:nonzero}
    .fil3 {fill:#517CEE;fill-rule:nonzero}
    .fil0 {fill:white;fill-rule:nonzero}
   ]]>
  </style>
 </defs>
 <g id="Layer_x0020_1">
  <metadata id="CorelCorpID_0Corel-Layer"/>
  <g id="_2229100217104">
   <path class="fil0" d="M1705 1962c217,0 378,-44 484,-131 104,-86 157,-218 157,-395 0,-169 -55,-299 -164,-390 -110,-91 -266,-136 -471,-136l-552 0 0 1052 546 0zm-1705 2696l0 -4604 1699 0c623,0 1084,113 1384,339 300,226 449,571 449,1037 0,478 -160,836 -481,1073 -320,237 -802,355 -1444,355l-448 0 0 1800 -1159 0zm6196 -391c-155,158 -317,273 -483,345 -166,71 -358,107 -575,107 -342,0 -605,-104 -789,-312 -184,-207 -276,-505 -276,-894l0 -1976 984 0 0 1841c0,223 36,385 107,487 70,102 182,153 333,153 135,0 263,-42 382,-124 119,-82 225,-204 317,-367l0 -1990 984 0 0 3121 -984 0 0 -391zm1692 391l0 -3121 978 0 0 393c153,-158 314,-273 484,-345 168,-73 362,-109 579,-109 342,0 605,104 787,311 182,207 273,506 273,897l0 1974 -984 0 0 -1839c0,-221 -36,-384 -107,-487 -72,-103 -183,-155 -335,-155 -136,0 -263,42 -380,125 -118,83 -223,207 -317,369l0 1987 -978 0zm9121 -746l0 -764c-336,118 -561,222 -673,311 -114,89 -170,195 -170,317 0,101 30,181 92,240 62,60 146,89 254,89 72,0 149,-17 234,-49 83,-33 170,-81 263,-144zm49 457c-147,119 -300,207 -459,264 -159,58 -330,86 -512,86 -301,0 -528,-73 -682,-219 -154,-146 -230,-363 -230,-651 0,-250 114,-456 340,-618 227,-162 725,-354 1494,-575 2,-11 3,-24 4,-36 1,-13 2,-31 2,-54 0,-148 -50,-258 -149,-329 -100,-71 -254,-107 -463,-107 -175,0 -355,43 -540,128 -185,86 -364,209 -540,371l14 -775c189,-127 396,-222 623,-284 227,-62 482,-94 765,-94 451,0 777,87 978,260 202,173 303,449 303,830l0 1244c0,73 10,122 29,151 21,29 53,43 99,43 43,0 86,-5 131,-17 45,-10 105,-31 179,-62l0 547c-177,85 -335,148 -473,187 -137,39 -267,60 -389,60 -157,0 -279,-30 -368,-88 -89,-58 -140,-145 -156,-262zm2769 -606c84,68 170,119 259,151 89,33 182,50 279,50 239,0 429,-78 568,-233 139,-154 209,-365 209,-630 0,-268 -70,-479 -208,-633 -138,-154 -328,-230 -569,-230 -93,0 -184,18 -274,53 -91,35 -178,86 -264,155l0 1317zm-977 715l0 -4424 977 0 0 1711c124,-101 258,-175 403,-224 145,-48 305,-71 481,-71 452,0 810,146 1074,439 264,293 395,691 395,1193 0,508 -165,903 -494,1189 -329,285 -787,428 -1373,428 -218,0 -447,-21 -689,-60 -241,-39 -500,-100 -774,-181zm3870 180l0 -3121 985 0 0 3121 -985 0zm-33 -4131c0,-147 50,-272 153,-374 102,-102 225,-153 373,-153 149,0 274,51 374,152 101,101 151,225 151,375 0,148 -50,272 -151,373 -100,101 -225,152 -374,152 -148,0 -271,-51 -373,-153 -103,-102 -153,-226 -153,-372z"/>
   <g>
    <path class="fil1" d="M11526 1037c-85,54 -201,35 -261,-41 -59,-77 -39,-182 46,-236l215 277zm2888 116l-78 -331 -142 207 -17 -48 -23 -45 -29 -41 -36 -39 -42 -37 -49 -36 -56 -32 -63 -30 -70 -28 -75 -24 -82 -21 -86 -17 -91 -14 -96 -10 -99 -6 -102 -3 -104 1 -107 5 -109 9 -109 12 -110 16 -110 19 -110 23 -109 26 -108 30 -105 34 -104 36 -101 40 -97 42 -94 46 -90 49 -85 51 -215 -277 100 -61 105 -56 109 -53 111 -49 115 -45 116 -41 119 -37 121 -34 121 -29 123 -26 123 -22 123 -17 122 -14 122 -10 121 -5 119 -1 118 3 115 7 113 12 110 17 107 21 103 27 99 31 95 37 90 44 84 49 79 56 71 63 63 70 54 77 43 83 32 89 -143 207zm143 -207c25,91 -36,183 -136,206 -100,23 -202,-32 -227,-123l363 -83zm257 2498l280 225 -312 295 -311 250 -309 206 -304 165 -300 126 -292 87 -285 51 -273 16 -261 -17 -246 -48 -228 -78 -208 -105 -187 -129 -162 -152 -136 -170 -108 -187 -78 -201 -48 -212 -14 -221 19 -226 54 -230 91 -231 129 -229 166 -224 207 -218 246 -209 288 -198 331 -185 374 -170 420 -154 466 -135 513 -114 78 331 -490 109 -440 128 -393 144 -346 157 -301 169 -259 177 -217 185 -179 188 -142 191 -107 191 -75 190 -44 186 -15 180 12 175 37 165 61 156 83 144 104 131 124 116 143 99 160 80 177 61 193 38 209 14 223 -13 237 -43 251 -75 262 -110 272 -147 281 -188 287 -231 292 -276zm0 0c69,-69 187,-76 265,-14 77,63 84,170 15,239l-280 -225z"/>
   </g>
   <path class="fil2" d="M13085 2438l485 -346c19,-14 46,-9 60,10l346 485c13,19 9,46 -10,60l-485 345c-19,14 -46,10 -60,-10l-346 -484c-14,-19 -9,-46 10,-60z"/>
   <path class="fil3" d="M25344 4227l104 0c208,0 370,-50 487,-151 117,-100 176,-239 176,-416 0,-178 -59,-317 -176,-418 -117,-102 -279,-152 -487,-152l-104 0 0 1137zm-469 427l0 -1988 528 0c371,0 662,88 873,265 210,178 315,421 315,729 0,184 -42,349 -125,491 -83,144 -205,261 -366,354 -92,53 -191,91 -299,114 -107,23 -240,35 -398,35l-528 0zm2537 -1988l0 1092c0,176 33,307 97,394 64,88 162,131 293,131 126,0 223,-40 289,-122 66,-81 99,-199 99,-355l0 -1140 425 0 0 1140c0,287 -74,512 -221,672 -147,161 -352,241 -614,241 -264,0 -470,-80 -617,-239 -146,-159 -220,-383 -220,-671l0 -1143 469 0zm2111 1629l198 0c95,0 169,-24 224,-70 54,-47 81,-111 81,-192 0,-80 -26,-141 -79,-185 -53,-43 -129,-65 -226,-65l-198 0 0 512zm0 -843l158 0c93,0 166,-21 219,-61 52,-41 78,-99 78,-173 0,-74 -24,-128 -74,-163 -50,-35 -128,-52 -234,-52l-147 0 0 449zm-432 1202l0 -1988 615 0c231,0 406,42 524,126 119,85 178,211 178,377 0,102 -27,188 -81,259 -54,71 -136,126 -245,165 122,28 216,84 285,169 69,86 103,190 103,314 0,191 -71,335 -212,432 -141,97 -351,146 -628,146l-539 0z"/>
  </g>
 </g>
</svg>
